<svg xmlns="http://www.w3.org/2000/svg" viewBox="0 0 68.86 68.6"><defs><style>.cls-1{fill:#f98a3c;}</style></defs><g id="Layer_2" data-name="Layer 2"><g id="CREATORS_3" data-name="CREATORS 3"><path class="cls-1" d="M34.69,68.6a34.3,34.3,0,1,0-33-43.29.8.8,0,0,0,.54,1,.79.79,0,0,0,.95-.54,32.75,32.75,0,1,1,0,17.19.82.82,0,0,0-.95-.57.83.83,0,0,0-.54.95,34.22,34.22,0,0,0,33,25.31Z"/><path class="cls-1" d="M40.67,48.83a.93.93,0,0,0,.46-.24L54.5,34.82a.77.77,0,0,0,0-1L41.13,20A.86.86,0,0,0,40,20a.82.82,0,0,0,0,1.08L52.14,33.54H.76a.76.76,0,0,0,0,1.52H52.14L40,47.53a.79.79,0,0,0,.65,1.3Z"/></g></g></svg>