<svg xmlns="http://www.w3.org/2000/svg" viewBox="0 0 37.68 37.68"><defs><style>.cls-1{fill:#fff;}</style></defs><g id="Layer_2" data-name="Layer 2"><g id="CREATORS_3" data-name="CREATORS 3"><path class="cls-1" d="M18.84,0A18.86,18.86,0,0,0,0,18.84a18.67,18.67,0,0,0,2.79,9.85h0a.75.75,0,0,0,.09.15s0,0,0,0a18.83,18.83,0,0,0,31.88,0l0,0,.09-.15h0a18.67,18.67,0,0,0,2.79-9.85A18.86,18.86,0,0,0,18.84,0ZM34.33,27.4a18.82,18.82,0,0,0-31,0,17.7,17.7,0,1,1,31,0Z"/><path class="cls-1" d="M18.48,3.49a7.36,7.36,0,1,0,7.35,7.36A7.36,7.36,0,0,0,18.48,3.49Z"/></g></g></svg>