<svg xmlns="http://www.w3.org/2000/svg" viewBox="0 0 48.95 33.4"><defs><style>.cls-1,.cls-2{fill:#fff;}.cls-2{fill-rule:evenodd;}</style></defs><g id="Layer_2" data-name="Layer 2"><g id="Contact"><polygon class="cls-1" points="2.44 0 20.99 13.57 39.44 0 2.44 0"/><polygon class="cls-1" points="0 26.56 14.96 12.06 0 1.16 0 26.56"/><path class="cls-1" d="M26.91,12.06l7.42,7.19a9.29,9.29,0,0,1,7.54-3V1.16Z"/><path class="cls-1" d="M32.94,21.23l-7.89-7.78-3.36,2.44a1,1,0,0,1-1.39,0l-3.48-2.44L1.74,28.19H32.13A9.65,9.65,0,0,1,32.94,21.23Z"/><path class="cls-2" d="M41.41,18.09a7.66,7.66,0,1,1-7.66,7.66A7.63,7.63,0,0,1,41.41,18.09Zm3.13,7.31-2.78-2.2c-.24-.23-.7-.12-.7.23v1.62h-2.2a.76.76,0,1,0,0,1.51h2.2v1.51c0,.35.46.46.7.23l2.78-2.2A.73.73,0,0,0,44.54,25.4Z"/></g></g></svg>